<svg xmlns="http://www.w3.org/2000/svg" width="24" height="24" viewBox="0 0 24 24" fill="none">
  <path d="M5.25 3.75C4.828 3.7655 4.4765 3.914 4.1955 4.1955C3.9145 4.477 3.766 4.8285 3.75 5.25V18.75C3.7655 19.172 3.914 19.5235 4.1955 19.8045C4.477 20.0855 4.8285 20.234 5.25 20.25H18.75C19.172 20.2345 19.5235 20.086 19.8045 19.8045C20.0855 19.523 20.234 19.1715 20.25 18.75V5.25C20.2345 4.828 20.086 4.4765 19.8045 4.1955C19.523 3.9145 19.1715 3.766 18.75 3.75H5.25ZM5.25 2.25H18.75C19.594 2.2655 20.301 2.5585 20.871 3.129C21.441 3.6995 21.734 4.4065 21.75 5.25V18.75C21.7345 19.594 21.4415 20.301 20.871 20.871C20.3005 21.441 19.5935 21.734 18.75 21.75H5.25C4.406 21.7345 3.699 21.4415 3.129 20.871C2.559 20.3005 2.266 19.5935 2.25 18.75V5.25C2.2655 4.406 2.5585 3.699 3.129 3.129C3.6995 2.559 4.4065 2.266 5.25 2.25ZM9 9.75C9.422 9.7345 9.7735 9.586 10.0545 9.3045C10.3355 9.023 10.4762 8.6715 10.4767 8.25C10.4773 7.8285 10.3365 7.477 10.0545 7.1955C9.7725 6.914 9.421 6.77325 9 6.77325C8.579 6.77325 8.2275 6.914 7.9455 7.1955C7.6635 7.477 7.52275 7.8285 7.52325 8.25C7.52375 8.6715 7.6645 9.023 7.9455 9.3045C8.2265 9.586 8.578 9.7345 9 9.75ZM9 11.25C8.156 11.2345 7.449 10.9415 6.879 10.371C6.309 9.8005 6.016 9.0935 6 8.25C6.0155 7.406 6.3085 6.699 6.879 6.129C7.4495 5.559 8.1565 5.266 9 5.25C9.844 5.2655 10.551 5.5585 11.121 6.129C11.691 6.6995 11.984 7.4065 12 8.25C11.9845 9.094 11.6915 9.801 11.121 10.371C10.5505 10.941 9.8435 11.234 9 11.25ZM11.25 7.5H17.25C17.75 7.5 18 7.75 18 8.25C18 8.75 17.75 9 17.25 9H11.25C10.75 9 10.5 8.75 10.5 8.25C10.5 7.75 10.75 7.5 11.25 7.5ZM15 17.25C15.422 17.2345 15.7735 17.086 16.0545 16.8045C16.3355 16.523 16.4762 16.1715 16.4767 15.75C16.4773 15.3285 16.3365 14.977 16.0545 14.6955C15.7725 14.414 15.421 14.2732 15 14.2733C14.579 14.2733 14.2275 14.414 13.9455 14.6955C13.6635 14.977 13.5227 15.3285 13.5233 15.75C13.5238 16.1715 13.6645 16.523 13.9455 16.8045C14.2265 17.086 14.578 17.2345 15 17.25ZM15 18.75C14.156 18.7345 13.449 18.4415 12.879 17.871C12.309 17.3005 12.016 16.5935 12 15.75C12.0155 14.906 12.3085 14.199 12.879 13.629C13.4495 13.059 14.1565 12.766 15 12.75C15.844 12.7655 16.551 13.0585 17.121 13.629C17.691 14.1995 17.984 14.9065 18 15.75C17.9845 16.594 17.6915 17.301 17.121 17.871C16.5505 18.441 15.8435 18.734 15 18.75ZM6.75 15H12.75C13.25 15 13.5 15.25 13.5 15.75C13.5 16.25 13.25 16.5 12.75 16.5H6.75C6.25 16.5 6 16.25 6 15.75C6 15.25 6.25 15 6.75 15Z" fill="#303133"/>
</svg>