<svg width="24" height="24" viewBox="0 0 24 24" fill="none" xmlns="http://www.w3.org/2000/svg">
<path d="M15.0094 20.9081L7.97437 20.9175L0.517502 17.88C0.517502 17.88 0.46875 15.5194 0.613125 13.0763C0.7575 10.6331 1.43438 6.91876 1.43438 6.91876C1.43438 6.91876 1.39313 6.24001 1.47563 5.87251C1.55438 5.52376 1.76438 5.24064 2.3475 5.20689C2.88187 5.17501 14.9325 5.20689 15.2606 5.24814C15.5887 5.28939 17.5669 7.68001 17.5669 7.68001C17.5669 7.68001 20.3569 12.2963 20.4375 12.3994C20.52 12.5025 22.3425 13.7306 22.6331 14.1038C22.9369 14.4938 22.9162 14.8125 22.9162 14.8125L22.905 17.9681L15.0094 20.9081Z" fill="#E1E1E1"/>
<path d="M0.515625 17.8781C0.515625 17.8781 4.58813 17.8406 5.43 18.0169C6.27187 18.1931 6.83813 18.6956 7.31437 19.4625C7.7925 20.2294 7.98 20.9213 7.98 20.9213C7.98 20.9213 1.33125 20.9081 1.10625 20.9213C0.88125 20.9344 0.577499 20.5819 0.553123 20.1038C0.526875 19.6256 0.515625 17.8781 0.515625 17.8781ZM15.0056 20.9063C15.0056 20.9063 15.5831 19.5244 16.1869 18.9075C16.7906 18.2906 17.67 17.8763 18.7256 17.8388C19.7812 17.8013 22.9012 17.7769 22.9012 17.7769C22.9012 17.7769 23.6025 18.3544 23.6531 19.17C23.7037 19.9875 23.6531 20.7656 22.9987 20.8163C22.3444 20.8669 15.0056 20.9063 15.0056 20.9063Z" fill="#516C73"/>
<path d="M21.0975 21.0844C21.0825 21.9712 20.3756 23.25 18.8344 23.2594C17.2931 23.2687 16.4944 22.0894 16.5431 20.88C16.5919 19.65 17.5481 18.7837 18.9225 18.8212C20.2106 18.8587 21.1181 19.8562 21.0975 21.0844Z" fill="#4E433D"/>
<path d="M19.9969 21.0319C19.9894 21.5006 19.6181 22.1737 18.8081 22.1794C17.9981 22.185 17.6044 21.5981 17.6306 20.9606C17.6569 20.3119 18.1744 19.83 18.855 19.8394C19.53 19.8487 20.0063 20.385 19.9969 21.0319Z" fill="#C8C8C8"/>
<path d="M6.38812 20.9794C6.37312 21.8663 5.66625 23.145 4.125 23.1544C2.58375 23.1638 1.785 21.9844 1.83375 20.775C1.8825 19.545 2.83875 18.6788 4.21312 18.7163C5.49937 18.7519 6.40687 19.7494 6.38812 20.9794Z" fill="#4E433D"/>
<path d="M5.28563 20.9269C5.27813 21.3956 4.90687 22.0688 4.09687 22.0744C3.28687 22.08 2.89313 21.4931 2.91938 20.8556C2.94563 20.2069 3.46312 19.725 4.14375 19.7344C4.81875 19.7438 5.29688 20.2781 5.28563 20.9269Z" fill="#C8C8C8"/>
<path d="M22.9087 17.0362L0.508123 17.1244C0.508123 17.1244 0.504375 16.7269 0.504375 16.2019C0.504375 15.6844 0.523125 15.2962 0.523125 15.2962L22.9237 15.2906L22.9087 17.0362Z" fill="#D70617"/>
<path d="M22.92 14.8069C22.92 14.8069 20.6381 14.7975 20.5144 14.7975C20.3906 14.7975 20.2931 14.8931 20.2931 15.0562C20.2931 15.2194 20.2256 15.8231 20.715 16.2731C20.925 16.4662 21.3788 16.5075 21.8081 16.5131C22.4513 16.5206 22.8619 16.5244 22.9144 16.5244C22.9144 16.5244 22.9425 15.2475 22.9388 15.0919C22.9313 14.91 22.92 14.8069 22.92 14.8069Z" fill="#FFE365"/>
<path d="M17.6156 7.76249L1.28625 7.75874L1.35188 7.33499C1.38938 7.09311 1.4325 6.92061 1.4325 6.92061L15.2756 6.93749L15.2588 5.24624C15.2588 5.24624 15.5944 5.20686 15.7706 5.37186C16.02 5.60624 16.4681 6.07686 16.9013 6.64499C17.2406 7.08936 17.6156 7.76249 17.6156 7.76249Z" fill="#C9C9C9"/>
<path d="M17.0025 5.97374C17.4338 6.45562 17.3119 7.24687 17.3119 7.24687C17.3119 7.24687 15.9094 7.29187 15.8606 7.21312C15.8119 7.13624 15.8325 5.43937 15.8325 5.43937C15.8325 5.43937 16.4194 5.31937 17.0025 5.97374Z" fill="#FA2B23"/>
<path d="M15.2588 5.25188C15.1819 5.24251 10.8 5.21438 10.8 5.21438C10.8 5.21438 10.8 4.46251 10.8075 4.19063C10.8169 3.82126 11.1094 3.54001 11.6419 3.52126C12.015 3.50813 14.1375 3.49126 14.4769 3.51188C14.8163 3.53063 15.2044 3.81376 15.225 4.23938C15.2456 4.66501 15.2588 5.25188 15.2588 5.25188Z" fill="#DD0F26"/>
<path d="M13.6087 4.34999L13.3612 4.88999L13.9537 4.88061C13.9537 4.88061 14.4094 4.44374 14.4094 4.34624C14.4094 4.24874 13.905 3.86999 13.905 3.86999L13.2806 3.86249L13.6087 4.34999ZM12.5494 4.36124L12.7687 4.90499L12.2756 4.90124C12.2756 4.90124 11.7694 4.46624 11.7637 4.38186C11.7562 4.25999 12.2719 3.86436 12.2719 3.86436L12.825 3.86249L12.5494 4.36124Z" fill="#FF5B5E"/>
<path d="M6.97875 8.37936C7.01812 8.69436 7.04437 11.43 7.04437 11.43L7.03125 14.2312L5.63062 14.205L5.55187 11.3381L5.60437 8.40561L6.97875 8.37936Z" fill="#1E86FE"/>
<path d="M9.04313 12.2325L6.68812 10.6219L4.2525 9.07687L3.49312 10.2019L5.9025 11.8781L8.33625 13.3837L9.04313 12.2325Z" fill="#1E86FE"/>
<path d="M8.415 9.12936L9.14813 10.2281L6.81938 11.9437L4.41 13.4362L3.6375 12.3356L6.07313 10.6219L8.415 9.12936Z" fill="#1E86FE"/>
<path d="M16.8581 8.58C17.1187 8.60438 17.3681 8.685 17.565 8.985C17.7619 9.28688 19.4625 12.3619 19.6331 12.6506C19.725 12.8063 19.8337 13.0481 19.7925 13.2375C19.7569 13.3969 19.5919 13.5169 19.4119 13.5281C19.02 13.5544 14.0194 13.515 13.7437 13.515C13.4681 13.515 13.2337 13.2788 13.2206 12.8606C13.2075 12.4425 13.1869 9.40313 13.2206 9.07688C13.26 8.69813 13.5094 8.58 13.8225 8.56688C14.1112 8.55375 16.5844 8.55375 16.8581 8.58Z" fill="#557077"/>
<path d="M16.5563 9.3825C16.8131 9.38625 17.0119 9.47063 17.2088 9.79875C17.3231 9.99 18.6881 12.4688 18.7275 12.5869C18.7669 12.705 18.675 12.81 18.4781 12.81C18.2813 12.81 14.4994 12.7838 14.2631 12.7838C14.0269 12.7838 13.9088 12.6131 13.8975 12.2606C13.8844 11.9063 13.8975 9.94313 13.8975 9.735C13.8975 9.52688 14.0025 9.38063 14.2763 9.38063C14.55 9.37875 16.32 9.37688 16.5563 9.3825Z" fill="#AFE3FB"/>
</svg>
