<svg width="16" height="16" viewBox="0 0 24 24" fill="none" xmlns="http://www.w3.org/2000/svg">
<path d="M15.541 21H8.46C7.8931 21.0002 7.34702 20.7863 6.93098 20.4012C6.51494 20.0162 6.25959 19.4882 6.216 18.923L5.25 6.375H18.75L17.785 18.923C17.7414 19.4884 17.4859 20.0165 17.0697 20.4016C16.6534 20.7867 16.1071 21.0004 15.54 21H15.541Z" stroke="#FF4D4F" stroke-width="1.5" stroke-linecap="round" stroke-linejoin="round"/>
<path d="M20 6.375H4" stroke="#FF4D4F" stroke-width="1.5" stroke-linecap="round" stroke-linejoin="round"/>
<path d="M9.188 3H14.812C14.9598 2.99987 15.1062 3.02887 15.2428 3.08535C15.3794 3.14183 15.5036 3.22467 15.6081 3.32915C15.7127 3.43363 15.7957 3.5577 15.8523 3.69425C15.9089 3.83081 15.938 3.97718 15.938 4.125V6.375H8.061V4.125C8.061 3.9771 8.09017 3.83064 8.14683 3.69402C8.20349 3.5574 8.28654 3.43329 8.39122 3.3288C8.49589 3.22431 8.62015 3.14148 8.75687 3.08506C8.89359 3.02864 9.0401 2.99974 9.188 3Z" stroke="#FF4D4F" stroke-width="1.5" stroke-linecap="round" stroke-linejoin="round"/>
<path d="M13.969 10.875V16.5" stroke="#FF4D4F" stroke-width="1.5" stroke-linecap="round" stroke-linejoin="round"/>
<path d="M10.031 10.875V16.5" stroke="#FF4D4F" stroke-width="1.5" stroke-linecap="round" stroke-linejoin="round"/>
</svg>
