<svg xmlns="http://www.w3.org/2000/svg" width="30" height="18" viewBox="0 0 30 18" fill="none">
  <path fill-rule="evenodd" clip-rule="evenodd" d="M7.99984 3.66667C7.99984 1.64162 6.35822 1.19209e-07 4.33317 0C2.30813 -1.19209e-07 0.666504 1.64162 0.666504 3.66667C0.666504 5.69171 2.30813 7.33333 4.33317 7.33333C6.35821 7.33333 7.99984 5.69171 7.99984 3.66667ZM7.99984 14.3333C7.99984 12.3083 6.35822 10.6667 4.33317 10.6667C2.30813 10.6667 0.666504 12.3083 0.666504 14.3333C0.666504 16.3584 2.30813 18 4.33317 18C6.35821 18 7.99984 16.3584 7.99984 14.3333ZM11.3332 1C11.3332 0.447716 11.7809 3.57628e-07 12.3332 3.57628e-07H20.3332C20.8855 3.57628e-07 21.3332 0.447716 21.3332 1C21.3332 1.55229 20.8855 2 20.3332 2H12.3332C11.7809 2 11.3332 1.55229 11.3332 1ZM12.3332 10.6667C11.7809 10.6667 11.3332 11.1144 11.3332 11.6667C11.3332 12.219 11.7809 12.6667 12.3332 12.6667H20.3332C20.8855 12.6667 21.3332 12.219 21.3332 11.6667C21.3332 11.1144 20.8855 10.6667 20.3332 10.6667H12.3332ZM11.3332 6.33333C11.3332 5.78105 11.7809 5.33333 12.3332 5.33333H28.3332C28.8855 5.33333 29.3332 5.78105 29.3332 6.33333C29.3332 6.88562 28.8855 7.33333 28.3332 7.33333H12.3332C11.7809 7.33333 11.3332 6.88562 11.3332 6.33333ZM12.3332 16C11.7809 16 11.3332 16.4477 11.3332 17C11.3332 17.5523 11.7809 18 12.3332 18H28.3332C28.8855 18 29.3332 17.5523 29.3332 17C29.3332 16.4477 28.8855 16 28.3332 16H12.3332Z" fill="#005AB4"/>
</svg>