<svg xmlns="http://www.w3.org/2000/svg" width="40" height="26" viewBox="0 0 40 26" fill="none">
  <path d="M7.08398 3.0013H8.33398V15.5013C8.33398 17.7982 10.2038 19.668 12.5007 19.668C14.7975 19.668 16.6673 17.7982 16.6673 15.5013V3.0013H17.9173C18.1465 3.0013 18.334 2.8138 18.334 2.58464V0.0846354C18.334 -0.144531 18.1465 -0.332031 17.9173 -0.332031H7.08398C6.85482 -0.332031 6.66732 -0.144531 6.66732 0.0846354V2.58464C6.66732 2.8138 6.85482 3.0013 7.08398 3.0013ZM10.834 3.0013H14.1673V8.0013H10.834V3.0013ZM35.834 23.0013H4.16732C3.70898 23.0013 3.33398 23.3763 3.33398 23.8346V25.5013C3.33398 25.9596 3.70898 26.3346 4.16732 26.3346H35.834C36.2923 26.3346 36.6673 25.9596 36.6673 25.5013V23.8346C36.6673 23.3763 36.2923 23.0013 35.834 23.0013ZM22.084 3.0013H23.334V15.5013C23.334 17.7982 25.2038 19.668 27.5007 19.668C29.7975 19.668 31.6673 17.7982 31.6673 15.5013V3.0013H32.9173C33.1465 3.0013 33.334 2.8138 33.334 2.58464V0.0846354C33.334 -0.144531 33.1465 -0.332031 32.9173 -0.332031H22.084C21.8548 -0.332031 21.6673 -0.144531 21.6673 0.0846354V2.58464C21.6673 2.8138 21.8548 3.0013 22.084 3.0013ZM25.834 3.0013H29.1673V8.0013H25.834V3.0013Z" fill="white"/>
</svg>