<svg xmlns="http://www.w3.org/2000/svg" width="24" height="24" viewBox="0 0 24 24" fill="none">
  <g clip-path="url(#clip0_9625_67077)">
    <path d="M9.99855 0C10.2149 0 10.4255 0.070179 10.5986 0.200001L14.5986 3.2C14.7228 3.29315 14.8236 3.41393 14.893 3.55279C14.9624 3.69164 14.9986 3.84476 14.9986 4L14.9986 9.62L22.0146 17.513C22.5128 18.0751 22.8382 18.7692 22.9515 19.5118C23.0648 20.2543 22.9612 21.0138 22.6532 21.699C22.3453 22.3841 21.846 22.9657 21.2154 23.3739C20.5848 23.7821 19.8497 23.9995 19.0986 24L4.89855 24C4.14745 23.9991 3.41257 23.7814 2.78224 23.3729C2.1519 22.9644 1.65293 22.3826 1.34528 21.6974C1.03763 21.0122 0.934397 20.2527 1.04798 19.5103C1.16156 18.7678 1.48713 18.0739 1.98555 17.512L8.99855 9.62L8.99855 1C8.99855 0.734783 9.10391 0.480429 9.29145 0.292892C9.47898 0.105356 9.73334 0 9.99855 0ZM12.9986 4.5L10.9986 3V10C10.9984 10.2448 10.9083 10.4811 10.7456 10.664L3.47755 18.841C3.2352 19.1149 3.07706 19.453 3.02212 19.8145C2.96717 20.1761 3.01775 20.5459 3.16779 20.8794C3.31782 21.213 3.56094 21.4961 3.86795 21.6949C4.17496 21.8937 4.53282 21.9996 4.89855 22L19.0986 22C19.4641 21.9994 19.8217 21.8935 20.1286 21.6947C20.4354 21.496 20.6783 21.213 20.8283 20.8796C20.9783 20.5463 21.029 20.1767 20.9742 19.8153C20.9195 19.4539 20.7616 19.1159 20.5196 18.842L13.2506 10.664C13.0881 10.481 12.9985 10.2447 12.9986 10V4.5Z" fill="black"/>
  </g>
  <defs>
    <clipPath id="clip0_9625_67077">
      <rect width="24" height="24" fill="white" transform="matrix(-1 0 0 -1 24 24)"/>
    </clipPath>
  </defs>
</svg>