<svg xmlns="http://www.w3.org/2000/svg" width="30" height="30" viewBox="0 0 30 30" fill="none">
  <path d="M7.70833 2.5H3.54167C2.96667 2.5 2.5 2.96667 2.5 3.54167V7.70833C2.5 8.28333 2.96667 8.75 3.54167 8.75H7.70833C8.28333 8.75 8.75 8.28333 8.75 7.70833V3.54167C8.75 2.96667 8.28333 2.5 7.70833 2.5Z" fill="white"/>
  <path d="M7.70833 11.875H3.54167C2.96667 11.875 2.5 12.3417 2.5 12.9167V17.0833C2.5 17.6583 2.96667 18.125 3.54167 18.125H7.70833C8.28333 18.125 8.75 17.6583 8.75 17.0833V12.9167C8.75 12.3417 8.28333 11.875 7.70833 11.875Z" fill="white"/>
  <path d="M7.70833 21.25H3.54167C2.96667 21.25 2.5 21.7167 2.5 22.2917V26.4583C2.5 27.0333 2.96667 27.5 3.54167 27.5H7.70833C8.28333 27.5 8.75 27.0333 8.75 26.4583V22.2917C8.75 21.7167 8.28333 21.25 7.70833 21.25Z" fill="white"/>
  <path d="M17.0833 2.5H12.9167C12.3417 2.5 11.875 2.96667 11.875 3.54167V7.70833C11.875 8.28333 12.3417 8.75 12.9167 8.75H17.0833C17.6583 8.75 18.125 8.28333 18.125 7.70833V3.54167C18.125 2.96667 17.6583 2.5 17.0833 2.5Z" fill="white"/>
  <path d="M17.0833 11.875H12.9167C12.3417 11.875 11.875 12.3417 11.875 12.9167V17.0833C11.875 17.6583 12.3417 18.125 12.9167 18.125H17.0833C17.6583 18.125 18.125 17.6583 18.125 17.0833V12.9167C18.125 12.3417 17.6583 11.875 17.0833 11.875Z" fill="white"/>
  <path d="M17.0833 21.25H12.9167C12.3417 21.25 11.875 21.7167 11.875 22.2917V26.4583C11.875 27.0333 12.3417 27.5 12.9167 27.5H17.0833C17.6583 27.5 18.125 27.0333 18.125 26.4583V22.2917C18.125 21.7167 17.6583 21.25 17.0833 21.25Z" fill="white"/>
  <path d="M26.4583 2.5H22.2917C21.7167 2.5 21.25 2.96667 21.25 3.54167V7.70833C21.25 8.28333 21.7167 8.75 22.2917 8.75H26.4583C27.0333 8.75 27.5 8.28333 27.5 7.70833V3.54167C27.5 2.96667 27.0333 2.5 26.4583 2.5Z" fill="white"/>
  <path d="M26.4583 11.875H22.2917C21.7167 11.875 21.25 12.3417 21.25 12.9167V17.0833C21.25 17.6583 21.7167 18.125 22.2917 18.125H26.4583C27.0333 18.125 27.5 17.6583 27.5 17.0833V12.9167C27.5 12.3417 27.0333 11.875 26.4583 11.875Z" fill="white"/>
  <path d="M26.4583 21.25H22.2917C21.7167 21.25 21.25 21.7167 21.25 22.2917V26.4583C21.25 27.0333 21.7167 27.5 22.2917 27.5H26.4583C27.0333 27.5 27.5 27.0333 27.5 26.4583V22.2917C27.5 21.7167 27.0333 21.25 26.4583 21.25Z" fill="white"/>
</svg>